<?xml version="1.0" standalone="no"?>
<!DOCTYPE svg PUBLIC "-//W3C//DTD SVG 20010904//EN"
 "http://www.w3.org/TR/2001/REC-SVG-20010904/DTD/svg10.dtd">
<svg version="1.0" xmlns="http://www.w3.org/2000/svg"
 width="500.000000pt" height="500.000000pt" viewBox="0 0 500.000000 500.000000"
 preserveAspectRatio="xMidYMid meet">

<g transform="translate(0.000000,500.000000) scale(0.100000,-0.100000)"
fill="#000000" stroke="none">
<path d="M1803 2875 c-20 -22 -16 -25 35 -25 l47 0 -33 20 c-38 23 -34 23 -49
5z"/>
<path d="M1047 2682 c-22 -25 -21 -75 1 -95 29 -26 151 -24 180 3 28 26 28 50
1 84 -19 24 -27 26 -93 26 -58 0 -76 -4 -89 -18z"/>
<path d="M1380 2678 c-26 -29 -25 -59 3 -86 19 -18 35 -22 84 -22 72 0 90 5
104 32 9 16 8 19 -3 13 -10 -6 -11 -5 0 6 17 19 15 39 -5 39 -14 0 -15 2 -4 9
24 16 -22 31 -93 31 -54 0 -69 -4 -86 -22z"/>
<path d="M1742 2683 c-19 -7 -44 -62 -37 -83 6 -20 38 -35 54 -26 8 5 8 103 0
110 -2 2 -10 1 -17 -1z"/>
<path d="M1785 2680 c3 -5 10 -10 16 -10 5 0 9 5 9 10 0 6 -7 10 -16 10 -8 0
-12 -4 -9 -10z"/>
<path d="M1832 2674 c2 -8 8 -14 13 -12 6 2 9 6 8 9 -1 4 6 5 16 2 10 -3 22 0
25 6 5 7 -6 11 -29 11 -28 0 -36 -4 -33 -16z"/>
<path d="M1898 2662 c-53 -30 -64 -53 -40 -82 13 -15 32 -20 82 -21 l65 -3 3
37 c2 20 -2 46 -8 58 -10 17 -9 23 1 30 9 6 2 9 -21 8 -19 0 -56 -12 -82 -27z"/>
<path d="M2071 2653 c0 -7 -10 -13 -21 -13 -17 0 -20 -7 -21 -47 -1 -49 -5
-121 -11 -183 -5 -55 20 -45 111 44 45 43 81 80 81 82 0 2 -7 4 -15 4 -8 0
-15 -5 -15 -11 0 -8 -5 -8 -15 1 -8 7 -12 16 -9 21 3 5 -2 6 -10 3 -11 -4 -16
0 -16 10 0 9 -4 16 -10 16 -5 0 -10 6 -10 14 0 8 -6 16 -14 19 -8 3 -16 16
-19 29 -2 13 -5 17 -6 11z"/>
<path d="M1784 2635 c-4 -9 -2 -21 3 -26 14 -14 45 1 41 20 -4 22 -37 26 -44
6z"/>
<path d="M1810 2575 c0 -9 9 -15 21 -15 18 0 19 2 9 15 -7 8 -16 15 -21 15 -5
0 -9 -7 -9 -15z"/>
<path d="M1775 2570 c-3 -5 -1 -10 4 -10 6 0 11 5 11 10 0 6 -2 10 -4 10 -3 0
-8 -4 -11 -10z"/>
<path d="M2185 2469 c-5 -5 -38 -32 -73 -61 -85 -70 -83 -89 13 -105 39 -7 97
-17 130 -23 33 -6 75 -13 94 -17 26 -4 37 -2 47 12 15 20 8 45 -12 45 -7 0
-20 10 -28 22 -13 18 -16 19 -16 5 0 -9 -4 -17 -10 -17 -5 0 -7 7 -3 16 3 9 1
19 -5 23 -6 4 -18 22 -26 41 -9 21 -15 28 -16 17 0 -11 -5 -17 -12 -14 -7 2
-12 10 -10 16 1 7 -7 9 -23 5 -16 -4 -25 -2 -25 6 0 6 5 8 10 5 6 -3 10 -2 10
4 0 15 -33 30 -45 20z m175 -159 c0 -5 -2 -10 -4 -10 -3 0 -8 5 -11 10 -3 6
-1 10 4 10 6 0 11 -4 11 -10z"/>
<path d="M2324 2439 c-4 -7 -3 -9 4 -5 5 3 13 0 15 -6 4 -9 6 -10 6 -1 1 17
-16 25 -25 12z"/>
<path d="M1302 2410 c-47 -20 -45 -96 4 -119 42 -19 128 -14 158 10 32 25 35
68 5 95 -23 21 -129 30 -167 14z"/>
<path d="M1976 2412 c-2 -4 -1 -14 3 -21 6 -9 10 -7 14 8 5 20 -7 29 -17 13z"/>
<path d="M1698 2345 c25 -64 26 -65 64 -65 l38 0 0 65 0 65 -64 0 -64 0 26
-65z"/>
<path d="M1820 2345 l0 -65 70 0 70 0 -12 25 c-9 19 -8 31 2 49 23 43 8 56
-65 56 l-65 0 0 -65z"/>
<path d="M1666 2345 c7 -52 16 -70 31 -64 5 2 -1 29 -14 59 l-23 55 6 -50z"/>
<path d="M1970 2355 c-24 -29 8 -75 44 -62 30 12 14 77 -20 77 -6 0 -17 -7
-24 -15z"/>
<path d="M2370 2351 c0 -5 5 -13 10 -16 6 -3 10 -2 10 4 0 5 -4 13 -10 16 -5
3 -10 2 -10 -4z"/>
<path d="M2040 2296 c0 -6 108 -108 248 -234 113 -101 126 -110 147 -100 19 8
21 14 13 27 -8 13 -6 38 7 92 29 124 24 155 -22 148 -10 -2 -38 2 -63 8 -25 7
-99 21 -165 33 -66 11 -130 23 -142 26 -13 2 -23 2 -23 0z"/>
<path d="M1990 2252 c11 -14 20 -36 20 -49 0 -31 -42 -73 -74 -73 -20 0 -30
-9 -47 -42 l-21 -42 28 -23 c25 -20 40 -23 117 -23 105 0 127 -14 127 -82 0
-40 3 -45 50 -75 l50 -33 -113 229 c-88 180 -117 229 -134 233 l-22 5 19 -25z"/>
<path d="M2410 2271 c0 -6 4 -13 10 -16 6 -3 7 1 4 9 -7 18 -14 21 -14 7z"/>
<path d="M2042 2245 c9 -17 59 -119 111 -227 64 -131 102 -198 114 -200 10 -3
43 13 74 34 85 59 83 63 -90 221 -80 73 -164 149 -185 167 l-39 35 15 -30z"/>
<path d="M1465 2115 c-14 -13 -25 -33 -25 -45 0 -11 11 -32 25 -45 20 -21 34
-25 84 -25 74 0 88 5 107 41 13 26 13 32 0 58 -19 36 -33 41 -107 41 -50 0
-64 -4 -84 -25z"/>
<path d="M2620 2120 c-24 -19 -24 -19 -2 -13 12 3 25 10 28 15 11 18 -1 17
-26 -2z"/>
<path d="M1820 2110 c0 -16 37 -49 44 -38 1 2 10 15 19 31 l17 27 -40 0 c-33
0 -40 -3 -40 -20z"/>
<path d="M2559 2117 c-18 -14 -32 -47 -20 -47 5 0 14 7 21 15 7 8 16 12 21 9
5 -3 9 0 9 5 0 6 -5 11 -11 11 -5 0 -7 5 -4 10 8 13 4 12 -16 -3z"/>
<path d="M1776 2091 c-4 -6 -2 -11 5 -11 9 0 9 -3 0 -14 -16 -19 31 -77 49
-60 17 17 8 55 -15 68 -11 6 -23 15 -26 20 -4 4 -10 3 -13 -3z"/>
<path d="M1850 2014 c0 -8 10 -14 26 -14 28 0 25 15 -6 23 -13 3 -20 0 -20 -9z"/>
<path d="M2607 2012 c-15 -7 -35 -15 -45 -17 -9 -2 -34 -10 -55 -17 -37 -13
-38 -14 -20 -30 17 -16 26 -16 107 -3 97 16 110 21 83 36 -9 6 -17 18 -17 28
0 21 -15 22 -53 3z"/>
<path d="M2420 1916 c0 -30 13 -40 40 -31 13 4 20 15 20 31 0 20 -5 24 -30 24
-25 0 -30 -4 -30 -24z"/>
<path d="M2630 1930 c-14 -4 -46 -8 -71 -9 -25 -1 -49 -4 -53 -8 -4 -5 37 -22
91 -39 85 -28 100 -30 114 -18 8 8 27 14 42 14 14 0 29 5 32 10 3 6 -3 10 -14
10 -15 0 -19 5 -14 16 5 14 1 16 -19 12 -19 -4 -25 -1 -21 9 6 15 -44 17 -87
3z"/>
<path d="M1660 1896 c0 -2 8 -10 18 -17 15 -13 16 -12 3 4 -13 16 -21 21 -21
13z"/>
<path d="M2812 1874 c-12 -22 17 -84 40 -84 23 0 23 0 -7 40 -14 19 -23 40
-21 47 7 18 -1 16 -12 -3z"/>
<path d="M2354 1843 c-39 -28 -51 -43 -51 -63 0 -23 15 -36 102 -93 112 -73
152 -93 162 -84 3 4 -18 61 -47 127 -43 98 -58 123 -83 135 -17 8 -31 15 -31
15 -1 -1 -24 -17 -52 -37z"/>
<path d="M2480 1873 c0 -17 113 -263 121 -263 4 0 29 30 55 66 40 56 46 69 36
85 -7 10 -12 29 -12 41 0 20 -11 27 -82 51 -83 28 -118 33 -118 20z"/>
<path d="M2110 1860 c-8 -6 -41 -10 -73 -10 -63 0 -68 -11 -14 -34 30 -12 207
-32 207 -23 0 4 -51 40 -95 69 -6 4 -17 3 -25 -2z"/>
<path d="M1940 1844 c0 -3 7 -12 15 -21 20 -19 32 -9 15 12 -12 15 -30 20 -30
9z"/>
<path d="M1710 1826 c0 -2 8 -10 18 -17 15 -13 16 -12 3 4 -13 16 -21 21 -21
13z"/>
<path d="M2710 1791 c0 -33 14 -42 24 -16 3 8 13 15 23 15 15 0 15 -2 -3 -15
-24 -18 -14 -19 21 -1 l27 14 -31 7 c-17 3 -36 3 -42 -1 -7 -4 -9 -3 -5 4 3 6
2 13 -4 17 -6 4 -10 -6 -10 -24z"/>
<path d="M1993 1794 c-3 -8 1 -22 9 -30 13 -13 16 -13 28 0 10 13 10 19 0 31
-16 19 -29 19 -37 -1z"/>
<path d="M2253 1803 c-16 -6 -17 -25 -2 -40 15 -15 39 -5 39 17 0 19 -17 30
-37 23z"/>
<path d="M1810 1796 c0 -2 8 -10 18 -17 15 -13 16 -12 3 4 -13 16 -21 21 -21
13z"/>
<path d="M2067 1780 c4 -4 78 -35 163 -68 231 -90 267 -103 246 -89 -10 6 -54
36 -97 65 -43 28 -90 52 -104 52 -13 0 -32 8 -42 19 -14 14 -37 20 -96 23 -43
3 -74 2 -70 -2z"/>
<path d="M2820 1766 c0 -9 -5 -16 -11 -16 -5 0 -8 -4 -5 -8 5 -9 -7 -11 -59
-13 -25 0 -38 -11 -73 -60 -41 -56 -50 -94 -20 -84 7 2 42 11 78 20 82 19 220
74 220 87 0 5 6 6 13 2 8 -4 9 -4 2 3 -18 17 -65 34 -62 21 1 -6 -4 -13 -11
-15 -8 -3 -10 1 -5 13 5 13 3 15 -7 9 -8 -5 -11 -4 -6 3 3 5 0 13 -6 16 -7 3
-4 4 8 1 12 -3 32 -1 45 4 l24 10 -25 2 c-44 3 -65 7 -82 14 -13 5 -18 2 -18
-9z m109 -69 c-2 -1 -13 -9 -24 -17 -19 -14 -19 -14 -6 3 7 9 18 17 24 17 6 0
8 -1 6 -3z"/>
<path d="M2045 1759 c-14 -21 170 -119 287 -153 75 -21 209 -43 197 -32 -15
14 -480 192 -484 185z"/>
<path d="M1790 1736 c0 -2 8 -10 18 -17 15 -13 16 -12 3 4 -13 16 -21 21 -21
13z"/>
<path d="M1890 1716 c0 -2 8 -10 18 -17 15 -13 16 -12 3 4 -13 16 -21 21 -21
13z"/>
<path d="M1830 1696 c0 -2 8 -10 18 -17 15 -13 16 -12 3 4 -13 16 -21 21 -21
13z"/>
<path d="M1945 1670 c10 -11 20 -20 23 -20 3 0 -3 9 -13 20 -10 11 -20 20 -23
20 -3 0 3 -9 13 -20z"/>
<path d="M2577 1584 c-4 -4 -7 -16 -7 -26 0 -15 6 -19 28 -16 19 2 27 9 27 23
0 20 -33 33 -48 19z"/>
<path d="M2218 1403 c7 -3 16 -2 19 1 4 3 -2 6 -13 5 -11 0 -14 -3 -6 -6z"/>
</g>
</svg>
